# This file uses centimeters as units for non-parametric coordinates.

mtllib lampara.mtl
g default
v -0.309482 1.003888 2.245208
v -0.334422 1.003888 2.219628
v -0.309482 1.055105 2.245208
v -0.334422 1.055105 2.219628
v -0.365848 1.003888 2.203204
v -0.365848 1.055105 2.203204
v -0.400684 1.003888 2.197545
v -0.400684 1.055105 2.197545
vt 0.387500 0.366206
vt 0.400000 0.366206
vt 0.400000 0.419911
vt 0.387500 0.419911
vt 0.412500 0.366206
vt 0.412500 0.419911
vt 0.425000 0.366206
vt 0.425000 0.419911
vn 0.716011 0.000000 -0.698089
vn 0.597532 0.000000 -0.801845
vn 0.597532 0.000000 -0.801845
vn 0.716011 0.000000 -0.698089
vn 0.316168 0.000000 -0.948703
vn 0.316168 0.000000 -0.948703
vn 0.160350 0.000000 -0.987060
vn 0.160350 0.000000 -0.987060
s 1
g polySurface79 polySurface6
usemtl lambert14SG
f 1/1/1 2/2/2 4/3/3 3/4/4
f 2/2/2 5/5/5 6/6/6 4/3/3
f 5/5/5 7/7/7 8/8/8 6/6/6
g default
v -0.309482 1.101013 2.381135
v -0.293470 1.101013 2.348902
v -0.309482 1.162698 2.381135
v -0.293470 1.162698 2.348902
v -0.287952 1.101013 2.313172
v -0.287952 1.162698 2.313172
v -0.293470 1.101013 2.277441
v -0.293470 1.162698 2.277441
vt 0.587500 0.473617
vt 0.600000 0.473617
vt 0.600000 0.527323
vt 0.587500 0.527323
vt 0.612500 0.473617
vt 0.612500 0.527323
vt 0.625000 0.473617
vt 0.625000 0.527323
vn 0.895581 0.000000 0.444899
vn 0.953310 0.000000 0.301994
vn 0.953310 0.000000 0.301994
vn 0.895581 0.000000 0.444899
vn 1.000000 0.000000 0.000001
vn 1.000000 0.000000 0.000001
vn 0.988287 0.000000 -0.152609
vn 0.988287 0.000000 -0.152609
s 1
g polySurface6 polySurface88
usemtl lambert14SG
f 9/9/9 10/10/10 12/11/11 11/12/12
f 10/10/10 13/13/13 14/14/14 12/11/11
f 13/13/13 15/15/15 16/16/16 14/14/14
g default
v -0.309482 1.203957 2.381135
v -0.293470 1.203957 2.348902
v -0.309482 1.257602 2.381135
v -0.293470 1.257602 2.348902
v -0.287952 1.203957 2.313172
v -0.287952 1.257602 2.313172
v -0.293470 1.203957 2.277441
v -0.293470 1.257602 2.277441
vt 0.587500 0.581028
vt 0.600000 0.581028
vt 0.600000 0.634734
vt 0.587500 0.634734
vt 0.612500 0.581028
vt 0.612500 0.634734
vt 0.625000 0.581028
vt 0.625000 0.634734
vn 0.895581 0.000000 0.444899
vn 0.953310 0.000000 0.301994
vn 0.953310 0.000000 0.301994
vn 0.895581 0.000000 0.444899
vn 1.000000 0.000000 0.000001
vn 1.000000 0.000000 0.000001
vn 0.988287 0.000000 -0.152609
vn 0.988287 0.000000 -0.152609
s 1
g polySurface6 polySurface93
usemtl lambert14SG
f 17/17/17 18/18/18 20/19/19 19/20/20
f 18/18/18 21/21/21 22/22/22 20/19/19
f 21/21/21 23/23/23 24/24/24 22/22/22
g default
v -0.513415 1.101013 2.313172
v -0.507898 1.101013 2.348902
v -0.513415 1.162698 2.313172
v -0.507898 1.162698 2.348902
v -0.491886 1.101013 2.381135
v -0.491886 1.162698 2.381135
v -0.466946 1.101013 2.406716
v -0.466946 1.162698 2.406716
vt 0.487500 0.473617
vt 0.500000 0.473617
vt 0.500000 0.527323
vt 0.487500 0.527323
vt 0.512500 0.473617
vt 0.512500 0.527323
vt 0.525000 0.473617
vt 0.525000 0.527323
vn -0.988286 0.000000 0.152610
vn -0.953310 0.000000 0.301994
vn -0.953310 0.000000 0.301994
vn -0.988286 0.000000 0.152610
vn -0.816017 0.000000 0.578028
vn -0.816017 0.000000 0.578028
vn -0.716013 0.000000 0.698087
vn -0.716013 0.000000 0.698087
s 1
g polySurface6 polySurface86
usemtl lambert14SG
f 25/25/25 26/26/26 28/27/27 27/28/28
f 26/26/26 29/29/29 30/30/30 28/27/27
f 29/29/29 31/31/31 32/32/32 30/30/30
g default
v -0.513415 1.003888 2.313172
v -0.507898 1.003888 2.348902
v -0.513415 1.055105 2.313172
v -0.507898 1.055105 2.348902
v -0.491886 1.003888 2.381135
v -0.491886 1.055105 2.381135
v -0.466946 1.003888 2.406716
v -0.466946 1.055105 2.406716
vt 0.487500 0.366206
vt 0.500000 0.366206
vt 0.500000 0.419911
vt 0.487500 0.419911
vt 0.512500 0.366206
vt 0.512500 0.419911
vt 0.525000 0.366206
vt 0.525000 0.419911
vn -0.988287 0.000000 0.152610
vn -0.953310 0.000000 0.301993
vn -0.953310 0.000000 0.301993
vn -0.988287 0.000000 0.152610
vn -0.816017 0.000000 0.578027
vn -0.816017 0.000000 0.578027
vn -0.716013 0.000000 0.698087
vn -0.716013 0.000000 0.698087
s 1
g polySurface6 polySurface81
usemtl lambert14SG
f 33/33/33 34/34/34 36/35/35 35/36/36
f 34/34/34 37/37/37 38/38/38 36/35/35
f 37/37/37 39/39/39 40/40/40 38/38/38
g default
v -0.513415 1.203957 2.313172
v -0.507898 1.203957 2.348902
v -0.513415 1.257602 2.313172
v -0.507898 1.257602 2.348902
v -0.491886 1.203957 2.381135
v -0.491886 1.257602 2.381135
v -0.466946 1.203957 2.406716
v -0.466946 1.257602 2.406716
vt 0.487500 0.581028
vt 0.500000 0.581028
vt 0.500000 0.634734
vt 0.487500 0.634734
vt 0.512500 0.581028
vt 0.512500 0.634734
vt 0.525000 0.581028
vt 0.525000 0.634734
vn -0.988287 0.000000 0.152610
vn -0.953310 0.000000 0.301994
vn -0.953310 0.000000 0.301994
vn -0.988287 0.000000 0.152610
vn -0.816017 0.000000 0.578027
vn -0.816017 0.000000 0.578027
vn -0.716014 0.000000 0.698086
vn -0.716014 0.000000 0.698086
s 1
g polySurface6 polySurface91
usemtl lambert14SG
f 41/41/41 42/42/42 44/43/43 43/44/44
f 42/42/42 45/45/45 46/46/46 44/43/43
f 45/45/45 47/47/47 48/48/48 46/46/46
g default
v -0.435520 1.003888 2.423139
v -0.400684 1.003888 2.428798
v -0.435520 1.055105 2.423139
v -0.400684 1.055105 2.428798
v -0.365848 1.003888 2.423139
v -0.365848 1.055105 2.423139
v -0.334422 1.003888 2.406716
v -0.334422 1.055105 2.406716
vt 0.537500 0.366206
vt 0.550000 0.366206
vt 0.550000 0.419911
vt 0.537500 0.419911
vt 0.562500 0.366206
vt 0.562500 0.419911
vt 0.575000 0.366206
vt 0.575000 0.419911
vn -0.160350 0.000000 0.987060
vn 0.000000 0.000000 1.000000
vn 0.000000 0.000000 1.000000
vn -0.160350 0.000000 0.987060
vn 0.316168 0.000000 0.948703
vn 0.316168 0.000000 0.948703
vn 0.463173 0.000000 0.886268
vn 0.463173 0.000000 0.886268
s 1
g polySurface6 polySurface82
usemtl lambert14SG
f 49/49/49 50/50/50 52/51/51 51/52/52
f 50/50/50 53/53/53 54/54/54 52/51/51
f 53/53/53 55/55/55 56/56/56 54/54/54
g default
v -0.435520 1.203957 2.203204
v -0.466946 1.203957 2.219628
v -0.435520 1.257602 2.203204
v -0.466946 1.257602 2.219628
v -0.491886 1.203957 2.245208
v -0.507898 1.203957 2.277441
v -0.507898 1.257602 2.277441
v -0.491886 1.257602 2.245208
v -0.501470 1.257788 2.238087
v -0.473916 1.257712 2.209817
vt 0.437500 0.581028
vt 0.450000 0.581028
vt 0.450000 0.634734
vt 0.437500 0.634734
vt 0.462500 0.581028
vt 0.462500 0.634734
vt 0.450000 0.634734
vt 0.475000 0.581028
vt 0.475000 0.634734
vt 0.462500 0.634734
vt 0.462500 0.634734
vt 0.450000 0.634734
vn -0.463172 0.000000 -0.886268
vn -0.597532 0.000000 -0.801845
vn -0.597532 0.000000 -0.801845
vn -0.463172 0.000000 -0.886268
vn -0.816017 0.000000 -0.578027
vn -0.816017 0.000000 -0.578027
vn -0.895583 0.000000 -0.444895
vn -0.895583 0.000000 -0.444895
vn -0.009696 -0.999921 -0.008033
vn -0.009696 -0.999921 -0.008033
vn -0.009696 -0.999921 -0.008033
vn -0.009696 -0.999921 -0.008033
s 1
g polySurface6 polySurface90
usemtl lambert14SG
f 57/57/57 58/58/58 60/59/59 59/60/60
f 58/58/58 61/61/61 64/62/62 60/63/59
f 61/61/61 62/64/63 63/65/64 64/66/62
s off
f 60/59/65 64/66/66 65/67/67 66/68/68
g default
v -0.435520 1.003888 2.203204
v -0.466946 1.003888 2.219628
v -0.435520 1.055105 2.203204
v -0.466946 1.055105 2.219628
v -0.491886 1.003888 2.245208
v -0.491886 1.055105 2.245208
v -0.507898 1.003888 2.277441
v -0.507898 1.055105 2.277441
vt 0.437500 0.366206
vt 0.450000 0.366206
vt 0.450000 0.419911
vt 0.437500 0.419911
vt 0.462500 0.366206
vt 0.462500 0.419911
vt 0.475000 0.366206
vt 0.475000 0.419911
vn -0.463173 0.000000 -0.886268
vn -0.597533 0.000000 -0.801844
vn -0.597533 0.000000 -0.801844
vn -0.463173 0.000000 -0.886268
vn -0.816018 0.000000 -0.578026
vn -0.816018 0.000000 -0.578026
vn -0.895583 0.000000 -0.444894
vn -0.895583 0.000000 -0.444894
s 1
g polySurface6 polySurface80
usemtl lambert14SG
f 67/69/69 68/70/70 70/71/71 69/72/72
f 68/70/70 71/73/73 72/74/74 70/71/71
f 71/73/73 73/75/75 74/76/76 72/74/74
g default
v -0.435520 1.203957 2.423139
v -0.400684 1.203957 2.428798
v -0.435520 1.257602 2.423139
v -0.400684 1.257602 2.428798
v -0.365848 1.203957 2.423139
v -0.365848 1.257602 2.423139
v -0.334422 1.203957 2.406716
v -0.334422 1.257602 2.406716
vt 0.537500 0.581028
vt 0.550000 0.581028
vt 0.550000 0.634734
vt 0.537500 0.634734
vt 0.562500 0.581028
vt 0.562500 0.634734
vt 0.575000 0.581028
vt 0.575000 0.634734
vn -0.160350 0.000000 0.987060
vn 0.000000 0.000000 1.000000
vn 0.000000 0.000000 1.000000
vn -0.160350 0.000000 0.987060
vn 0.316168 0.000000 0.948703
vn 0.316168 0.000000 0.948703
vn 0.463172 0.000000 0.886268
vn 0.463172 0.000000 0.886268
s 1
g polySurface6 polySurface92
usemtl lambert14SG
f 75/77/77 76/78/78 78/79/79 77/80/80
f 76/78/78 79/81/81 80/82/82 78/79/79
f 79/81/81 81/83/83 82/84/84 80/82/82
g default
v -0.309482 1.003888 2.381135
v -0.293470 1.003888 2.348902
v -0.309482 1.055105 2.381135
v -0.293470 1.055105 2.348902
v -0.287952 1.003888 2.313172
v -0.287952 1.055105 2.313172
v -0.293470 1.003888 2.277441
v -0.293470 1.055105 2.277441
vt 0.587500 0.366206
vt 0.600000 0.366206
vt 0.600000 0.419911
vt 0.587500 0.419911
vt 0.612500 0.366206
vt 0.612500 0.419911
vt 0.625000 0.366206
vt 0.625000 0.419911
vn 0.895581 0.000000 0.444898
vn 0.953310 0.000000 0.301994
vn 0.953310 0.000000 0.301994
vn 0.895581 0.000000 0.444898
vn 1.000000 0.000000 0.000001
vn 1.000000 0.000000 0.000001
vn 0.988287 0.000000 -0.152609
vn 0.988287 0.000000 -0.152609
s 1
g polySurface6 polySurface83
usemtl lambert14SG
f 83/85/85 84/86/86 86/87/87 85/88/88
f 84/86/86 87/89/89 88/90/90 86/87/87
f 87/89/89 89/91/91 90/92/92 88/90/90
g default
v -0.309482 1.101013 2.245208
v -0.334422 1.101013 2.219628
v -0.309482 1.162698 2.245208
v -0.334422 1.162698 2.219628
v -0.365848 1.101013 2.203204
v -0.365848 1.162698 2.203204
v -0.400684 1.101013 2.197545
v -0.400684 1.162698 2.197545
vt 0.387500 0.473617
vt 0.400000 0.473617
vt 0.400000 0.527323
vt 0.387500 0.527323
vt 0.412500 0.473617
vt 0.412500 0.527323
vt 0.425000 0.473617
vt 0.425000 0.527323
vn 0.716012 0.000000 -0.698088
vn 0.597533 0.000000 -0.801845
vn 0.597533 0.000000 -0.801845
vn 0.716012 0.000000 -0.698088
vn 0.316168 0.000000 -0.948703
vn 0.316168 0.000000 -0.948703
vn 0.160350 0.000000 -0.987060
vn 0.160350 0.000000 -0.987060
s 1
g polySurface6 polySurface84
usemtl lambert14SG
f 91/93/93 92/94/94 94/95/95 93/96/96
f 92/94/94 95/97/97 96/98/98 94/95/95
f 95/97/97 97/99/99 98/100/100 96/98/98
g default
v -0.400684 1.290676 2.313172
v -0.304419 1.290676 2.281090
v -0.318796 1.290676 2.252149
v -0.341189 1.290676 2.229181
v -0.369406 1.290676 2.214435
v -0.400684 1.290676 2.209354
v -0.431962 1.290676 2.214435
v -0.460179 1.290676 2.229181
v -0.482572 1.290676 2.252149
v -0.496949 1.290676 2.281090
v -0.501903 1.290676 2.313172
v -0.496949 1.290676 2.345253
v -0.482572 1.290676 2.374194
v -0.460179 1.290676 2.397162
v -0.431962 1.290676 2.411909
v -0.400684 1.290676 2.416990
v -0.369406 1.290676 2.411909
v -0.341189 1.290676 2.397162
v -0.318796 1.290676 2.374194
v -0.304419 1.290676 2.345253
v -0.299465 1.290676 2.313172
vt 0.574301 0.867892
vt 0.563204 0.889671
vt 0.500000 0.837500
vt 0.545921 0.906954
vt 0.524142 0.918051
vt 0.500000 0.921875
vt 0.475858 0.918051
vt 0.454079 0.906954
vt 0.436796 0.889671
vt 0.425699 0.867892
vt 0.421875 0.843750
vt 0.425699 0.819608
vt 0.436796 0.797829
vt 0.454079 0.780546
vt 0.475858 0.769449
vt 0.500000 0.765625
vt 0.524142 0.769449
vt 0.545921 0.780545
vt 0.563205 0.797829
vt 0.574301 0.819608
vt 0.578125 0.843750
vn 0.000000 1.000000 0.000000
vn 0.000000 1.000000 0.000000
vn 0.000000 1.000000 0.000001
vn 0.000000 1.000000 0.000000
vn 0.000000 1.000000 0.000002
vn 0.000000 1.000000 0.000001
vn 0.000000 1.000000 -0.000004
vn 0.000000 1.000000 -0.000002
vn 0.000000 1.000000 0.000000
vn 0.000000 1.000000 0.000000
vn 0.000000 1.000000 0.000000
vn 0.000000 1.000000 0.000000
vn 0.000000 1.000000 0.000005
vn 0.000000 1.000000 0.000005
vn 0.000000 1.000000 0.000000
vn 0.000000 1.000000 0.000001
vn 0.000000 1.000000 -0.000002
vn 0.000000 1.000000 0.000002
vn 0.000000 1.000000 0.000005
vn 0.000000 1.000000 0.000005
vn 0.000000 1.000000 0.000005
s 1
g polySurface6 polySurface94
usemtl lambert14SG
f 100/101/101 101/102/102 99/103/103
f 101/102/102 102/104/104 99/103/103
f 102/104/104 103/105/105 99/103/103
f 103/105/105 104/106/106 99/103/103
f 104/106/106 105/107/107 99/103/103
f 105/107/107 106/108/108 99/103/103
f 106/108/108 107/109/109 99/103/103
f 107/109/109 108/110/110 99/103/103
f 108/110/110 109/111/111 99/103/103
f 109/111/111 110/112/112 99/103/103
f 110/112/112 111/113/113 99/103/103
f 111/113/113 112/114/114 99/103/103
f 112/114/114 113/115/115 99/103/103
f 113/115/115 114/116/116 99/103/103
f 114/116/116 115/117/117 99/103/103
f 115/117/117 116/118/118 99/103/103
f 116/118/118 117/119/119 99/103/103
f 117/119/119 118/120/120 99/103/103
f 118/120/120 119/121/121 99/103/103
f 119/121/121 100/101/101 99/103/103
g default
v -0.435520 1.101013 2.423139
v -0.400684 1.101013 2.428798
v -0.435520 1.162698 2.423139
v -0.400684 1.162698 2.428798
v -0.365848 1.101013 2.423139
v -0.365848 1.162698 2.423139
v -0.334422 1.101013 2.406716
v -0.334422 1.162698 2.406716
vt 0.537500 0.473617
vt 0.550000 0.473617
vt 0.550000 0.527323
vt 0.537500 0.527323
vt 0.562500 0.473617
vt 0.562500 0.527323
vt 0.575000 0.473617
vt 0.575000 0.527323
vn -0.160350 0.000000 0.987060
vn 0.000000 0.000000 1.000000
vn 0.000000 0.000000 1.000000
vn -0.160350 0.000000 0.987060
vn 0.316168 0.000000 0.948703
vn 0.316168 0.000000 0.948703
vn 0.463172 0.000000 0.886268
vn 0.463172 0.000000 0.886268
s 1
g polySurface6 polySurface87
usemtl lambert14SG
f 120/122/122 121/123/123 123/124/124 122/125/125
f 121/123/123 124/126/126 125/127/127 123/124/124
f 124/126/126 126/128/128 127/129/129 125/127/127
g default
v -0.309482 1.203957 2.245208
v -0.334422 1.203957 2.219628
v -0.309482 1.257602 2.245208
v -0.334422 1.257602 2.219628
v -0.365848 1.203957 2.203204
v -0.365848 1.257602 2.203204
v -0.400684 1.203957 2.197545
v -0.400684 1.257602 2.197545
vt 0.387500 0.581028
vt 0.400000 0.581028
vt 0.400000 0.634734
vt 0.387500 0.634734
vt 0.412500 0.581028
vt 0.412500 0.634734
vt 0.425000 0.581028
vt 0.425000 0.634734
vn 0.716011 0.000000 -0.698089
vn 0.597532 0.000000 -0.801845
vn 0.597532 0.000000 -0.801845
vn 0.716011 0.000000 -0.698089
vn 0.316169 0.000000 -0.948703
vn 0.316169 0.000000 -0.948703
vn 0.160350 0.000000 -0.987060
vn 0.160350 0.000000 -0.987060
s 1
g polySurface6 polySurface89
usemtl lambert14SG
f 128/130/130 129/131/131 131/132/132 130/133/133
f 129/131/131 132/134/134 133/135/135 131/132/132
f 132/134/134 134/136/136 135/137/137 133/135/135
g default
v -0.435520 1.101013 2.203204
v -0.466946 1.101013 2.219628
v -0.435520 1.162698 2.203204
v -0.466946 1.162698 2.219628
v -0.491886 1.101013 2.245208
v -0.491886 1.162698 2.245208
v -0.507898 1.101013 2.277441
v -0.507898 1.162698 2.277441
vt 0.437500 0.473617
vt 0.450000 0.473617
vt 0.450000 0.527323
vt 0.437500 0.527323
vt 0.462500 0.473617
vt 0.462500 0.527323
vt 0.475000 0.473617
vt 0.475000 0.527323
vn -0.463172 0.000000 -0.886268
vn -0.597533 0.000000 -0.801845
vn -0.597533 0.000000 -0.801845
vn -0.463172 0.000000 -0.886268
vn -0.816018 0.000000 -0.578026
vn -0.816018 0.000000 -0.578026
vn -0.895584 0.000000 -0.444893
vn -0.895584 0.000000 -0.444893
s 1
g polySurface6 polySurface85
usemtl lambert14SG
f 136/138/138 137/139/139 139/140/140 138/141/141
f 137/139/139 140/142/142 141/143/143 139/140/140
f 140/142/142 142/144/144 143/145/145 141/143/143
