# This file uses centimeters as units for non-parametric coordinates.

mtllib lampara.mtl
g default
v -0.356466 1.003888 2.423139
v -0.318333 1.003888 2.428798
v -0.356466 1.055105 2.423139
v -0.318333 1.055105 2.428798
v -0.280200 1.003888 2.423139
v -0.280200 1.055105 2.423139
v -0.245799 1.003888 2.406716
v -0.245799 1.055105 2.406716
vt 0.537500 0.366206
vt 0.550000 0.366206
vt 0.550000 0.419911
vt 0.537500 0.419911
vt 0.562500 0.366206
vt 0.562500 0.419911
vt 0.575000 0.366206
vt 0.575000 0.419911
vn -0.146790 0.000000 0.989168
vn -0.146790 0.000000 0.989168
vn -0.146790 0.000000 0.989168
vn -0.146790 0.000000 0.989168
vn 0.000000 0.000000 1.000000
vn 0.291249 0.000000 0.956647
vn 0.291249 0.000000 0.956647
vn 0.000000 0.000000 1.000000
vn 0.291249 0.000000 0.956647
vn 0.430839 0.000000 0.902429
vn 0.430839 0.000000 0.902429
vn 0.291249 0.000000 0.956647
s off
g rack_vino_pCube19polySurface295
usemtl lambert14SG
f 1/1/1 2/2/2 4/3/3 3/4/4
f 2/2/5 5/5/6 6/6/7 4/3/8
f 5/5/9 7/7/10 8/8/11 6/6/12
g default
v -0.218499 1.203957 2.245208
v -0.245799 1.203957 2.219628
v -0.218499 1.257602 2.245208
v -0.245799 1.257602 2.219628
v -0.280200 1.203957 2.203204
v -0.280200 1.257602 2.203204
v -0.318333 1.203957 2.197545
v -0.318333 1.257602 2.197545
vt 0.387500 0.581028
vt 0.400000 0.581028
vt 0.400000 0.634734
vt 0.387500 0.634734
vt 0.412500 0.581028
vt 0.412500 0.634734
vt 0.425000 0.581028
vt 0.425000 0.634734
vn 0.683744 0.000000 -0.729722
vn 0.683744 0.000000 -0.729722
vn 0.683744 0.000000 -0.729722
vn 0.683744 0.000000 -0.729722
vn 0.562742 0.000000 -0.826632
vn 0.291250 0.000000 -0.956647
vn 0.291250 0.000000 -0.956647
vn 0.562742 0.000000 -0.826632
vn 0.291250 0.000000 -0.956647
vn 0.146799 0.000000 -0.989166
vn 0.146799 0.000000 -0.989166
vn 0.291250 0.000000 -0.956647
s off
g rack_vino_pCube19polySurface307
usemtl lambert14SG
f 9/9/13 10/10/14 12/11/15 11/12/16
f 10/10/17 13/13/18 14/14/19 12/11/20
f 13/13/21 15/15/22 16/16/23 14/14/24
g default
v -0.356466 1.003888 2.203204
v -0.390866 1.003888 2.219628
v -0.356466 1.055105 2.203204
v -0.390866 1.055105 2.219628
v -0.418166 1.003888 2.245208
v -0.418166 1.055105 2.245208
v -0.435694 1.003888 2.277441
v -0.435694 1.055105 2.277441
vt 0.437500 0.366206
vt 0.450000 0.366206
vt 0.450000 0.419911
vt 0.437500 0.419911
vt 0.462500 0.366206
vt 0.462500 0.419911
vt 0.475000 0.366206
vt 0.475000 0.419911
vn -0.430860 0.000000 -0.902419
vn -0.430860 0.000000 -0.902419
vn -0.430860 0.000000 -0.902419
vn -0.430860 0.000000 -0.902419
vn -0.562743 0.000000 -0.826632
vn -0.790265 0.000000 -0.612765
vn -0.790265 0.000000 -0.612765
vn -0.562743 0.000000 -0.826632
vn -0.790265 0.000000 -0.612765
vn -0.878513 0.000000 -0.477718
vn -0.878513 0.000000 -0.477718
vn -0.790265 0.000000 -0.612765
s off
g rack_vino_pCube19polySurface282
usemtl lambert14SG
f 17/17/25 18/18/26 20/19/27 19/20/28
f 18/18/29 21/21/30 22/22/31 20/19/32
f 21/21/33 23/23/34 24/24/35 22/22/36
g default
v -0.441734 1.101012 2.313172
v -0.435694 1.101012 2.348902
v -0.441734 1.162698 2.313172
v -0.435694 1.162698 2.348902
v -0.418166 1.101012 2.381135
v -0.418166 1.162698 2.381135
v -0.390866 1.101012 2.406716
v -0.390866 1.162698 2.406716
vt 0.487500 0.473617
vt 0.500000 0.473617
vt 0.500000 0.527323
vt 0.487500 0.527323
vt 0.512500 0.473617
vt 0.512500 0.527323
vt 0.525000 0.473617
vt 0.525000 0.527323
vn -0.986011 0.000000 0.166680
vn -0.986011 0.000000 0.166680
vn -0.986011 0.000000 0.166680
vn -0.986011 0.000000 0.166680
vn -0.944807 0.000000 0.327627
vn -0.790266 0.000000 0.612764
vn -0.790266 0.000000 0.612764
vn -0.944807 0.000000 0.327627
vn -0.790266 0.000000 0.612764
vn -0.683749 0.000000 0.729718
vn -0.683749 0.000000 0.729718
vn -0.790266 0.000000 0.612764
s off
g rack_vino_pCube19polySurface337
usemtl lambert14SG
f 25/25/37 26/26/38 28/27/39 27/28/40
f 26/26/41 29/29/42 30/30/43 28/27/44
f 29/29/45 31/31/46 32/32/47 30/30/48
g default
v -0.218499 1.003888 2.245208
v -0.245799 1.003888 2.219628
v -0.218499 1.055105 2.245208
v -0.245799 1.055105 2.219628
v -0.280200 1.003888 2.203204
v -0.280200 1.055105 2.203204
v -0.318333 1.003888 2.197545
v -0.318333 1.055105 2.197545
vt 0.387500 0.366206
vt 0.400000 0.366206
vt 0.400000 0.419911
vt 0.387500 0.419911
vt 0.412500 0.366206
vt 0.412500 0.419911
vt 0.425000 0.366206
vt 0.425000 0.419911
vn 0.683744 0.000000 -0.729722
vn 0.683744 0.000000 -0.729722
vn 0.683744 0.000000 -0.729722
vn 0.683744 0.000000 -0.729722
vn 0.562743 0.000000 -0.826632
vn 0.291249 0.000000 -0.956647
vn 0.291249 0.000000 -0.956647
vn 0.562743 0.000000 -0.826632
vn 0.291249 0.000000 -0.956647
vn 0.146794 0.000000 -0.989167
vn 0.146794 0.000000 -0.989167
vn 0.291249 0.000000 -0.956647
s off
g rack_vino_pCube19polySurface312
usemtl lambert14SG
f 33/33/49 34/34/50 36/35/51 35/36/52
f 34/34/53 37/37/54 38/38/55 36/35/56
f 37/37/57 39/39/58 40/40/59 38/38/60
g default
v -0.218499 1.003888 2.381135
v -0.200971 1.003888 2.348902
v -0.218499 1.055105 2.381135
v -0.200971 1.055105 2.348902
v -0.194932 1.003888 2.313172
v -0.194932 1.055105 2.313172
v -0.200971 1.003888 2.277441
v -0.200971 1.055105 2.277441
vt 0.587500 0.366206
vt 0.600000 0.366206
vt 0.600000 0.419911
vt 0.587500 0.419911
vt 0.612500 0.366206
vt 0.612500 0.419911
vt 0.625000 0.366206
vt 0.625000 0.419911
vn 0.878509 0.000000 0.477725
vn 0.878509 0.000000 0.477725
vn 0.878509 0.000000 0.477725
vn 0.878509 0.000000 0.477725
vn 0.944807 0.000000 0.327627
vn 1.000000 0.000000 0.000001
vn 1.000000 0.000000 0.000001
vn 0.944807 0.000000 0.327627
vn 1.000000 0.000000 0.000001
vn 0.986013 0.000000 -0.166669
vn 0.986013 0.000000 -0.166669
vn 1.000000 0.000000 0.000001
s off
g rack_vino_pCube19polySurface292
usemtl lambert14SG
f 41/41/61 42/42/62 44/43/63 43/44/64
f 42/42/65 45/45/66 46/46/67 44/43/68
f 45/45/69 47/47/70 48/48/71 46/46/72
g default
v -0.356466 1.101012 2.423139
v -0.318333 1.101012 2.428798
v -0.356466 1.162698 2.423139
v -0.318333 1.162698 2.428798
v -0.280200 1.101012 2.423139
v -0.280200 1.162698 2.423139
v -0.245799 1.101012 2.406716
v -0.245799 1.162698 2.406716
vt 0.537500 0.473617
vt 0.550000 0.473617
vt 0.550000 0.527323
vt 0.537500 0.527323
vt 0.562500 0.473617
vt 0.562500 0.527323
vt 0.575000 0.473617
vt 0.575000 0.527323
vn -0.146791 0.000000 0.989168
vn -0.146791 0.000000 0.989168
vn -0.146791 0.000000 0.989168
vn -0.146791 0.000000 0.989168
vn 0.000000 0.000000 1.000000
vn 0.291249 0.000000 0.956647
vn 0.291249 0.000000 0.956647
vn 0.000000 0.000000 1.000000
vn 0.291249 0.000000 0.956647
vn 0.430838 0.000000 0.902429
vn 0.430838 0.000000 0.902429
vn 0.291249 0.000000 0.956647
s off
g rack_vino_pCube19polySurface309
usemtl lambert14SG
f 49/49/73 50/50/74 52/51/75 51/52/76
f 50/50/77 53/53/78 54/54/79 52/51/80
f 53/53/81 55/55/82 56/56/83 54/54/84
g default
v -0.441734 1.003888 2.313172
v -0.435694 1.003888 2.348902
v -0.441734 1.055105 2.313172
v -0.435694 1.055105 2.348902
v -0.418166 1.003888 2.381135
v -0.418166 1.055105 2.381135
v -0.390866 1.003888 2.406716
v -0.390866 1.055105 2.406716
vt 0.487500 0.366206
vt 0.500000 0.366206
vt 0.500000 0.419911
vt 0.487500 0.419911
vt 0.512500 0.366206
vt 0.512500 0.419911
vt 0.525000 0.366206
vt 0.525000 0.419911
vn -0.986011 0.000000 0.166681
vn -0.986011 0.000000 0.166681
vn -0.986011 0.000000 0.166681
vn -0.986011 0.000000 0.166681
vn -0.944807 0.000000 0.327627
vn -0.790266 0.000000 0.612765
vn -0.790266 0.000000 0.612765
vn -0.944807 0.000000 0.327627
vn -0.790266 0.000000 0.612765
vn -0.683748 0.000000 0.729718
vn -0.683748 0.000000 0.729718
vn -0.790266 0.000000 0.612765
s off
g rack_vino_pCube19polySurface279
usemtl lambert14SG
f 57/57/85 58/58/86 60/59/87 59/60/88
f 58/58/89 61/61/90 62/62/91 60/59/92
f 61/61/93 63/63/94 64/64/95 62/62/96
g default
v -0.218499 1.203957 2.381135
v -0.200971 1.203957 2.348902
v -0.218499 1.257602 2.381135
v -0.200971 1.257602 2.348902
v -0.194932 1.203957 2.313172
v -0.194932 1.257602 2.313172
v -0.200971 1.203957 2.277441
v -0.200971 1.257602 2.277441
vt 0.587500 0.581028
vt 0.600000 0.581028
vt 0.600000 0.634734
vt 0.587500 0.634734
vt 0.612500 0.581028
vt 0.612500 0.634734
vt 0.625000 0.581028
vt 0.625000 0.634734
vn 0.878508 0.000000 0.477728
vn 0.878508 0.000000 0.477728
vn 0.878508 0.000000 0.477728
vn 0.878508 0.000000 0.477728
vn 0.944807 0.000000 0.327628
vn 1.000000 0.000000 0.000001
vn 1.000000 0.000000 0.000001
vn 0.944807 0.000000 0.327628
vn 1.000000 0.000000 0.000001
vn 0.986013 0.000000 -0.166669
vn 0.986013 0.000000 -0.166669
vn 1.000000 0.000000 0.000001
s off
g rack_vino_pCube19polySurface283
usemtl lambert14SG
f 65/65/97 66/66/98 68/67/99 67/68/100
f 66/66/101 69/69/102 70/70/103 68/67/104
f 69/69/105 71/71/106 72/72/107 70/70/108
g default
v -0.218499 1.101012 2.245208
v -0.245799 1.101012 2.219628
v -0.218499 1.162698 2.245208
v -0.245799 1.162698 2.219628
v -0.280200 1.101012 2.203204
v -0.280200 1.162698 2.203204
v -0.318333 1.101012 2.197545
v -0.318333 1.162698 2.197545
vt 0.387500 0.473617
vt 0.400000 0.473617
vt 0.400000 0.527323
vt 0.387500 0.527323
vt 0.412500 0.473617
vt 0.412500 0.527323
vt 0.425000 0.473617
vt 0.425000 0.527323
vn 0.683746 0.000000 -0.729721
vn 0.683746 0.000000 -0.729721
vn 0.683746 0.000000 -0.729721
vn 0.683746 0.000000 -0.729721
vn 0.562743 0.000000 -0.826632
vn 0.291248 0.000000 -0.956648
vn 0.291248 0.000000 -0.956648
vn 0.562743 0.000000 -0.826632
vn 0.291248 0.000000 -0.956648
vn 0.146798 0.000000 -0.989166
vn 0.146798 0.000000 -0.989166
vn 0.291248 0.000000 -0.956648
s off
g rack_vino_pCube19polySurface340
usemtl lambert14SG
f 73/73/109 74/74/110 76/75/111 75/76/112
f 74/74/113 77/77/114 78/78/115 76/75/116
f 77/77/117 79/79/118 80/80/119 78/78/120
g default
v -0.356466 1.203957 2.203204
v -0.390866 1.203957 2.219628
v -0.356466 1.257602 2.203204
v -0.390866 1.257602 2.219628
v -0.418166 1.203957 2.245208
v -0.435694 1.203957 2.277441
v -0.435694 1.257602 2.277441
v -0.418166 1.257602 2.245208
v -0.428658 1.257788 2.238087
v -0.398496 1.257712 2.209817
vt 0.437500 0.581028
vt 0.450000 0.581028
vt 0.450000 0.634734
vt 0.437500 0.634734
vt 0.462500 0.581028
vt 0.462500 0.634734
vt 0.450000 0.634734
vt 0.475000 0.581028
vt 0.475000 0.634734
vt 0.462500 0.634734
vt 0.462500 0.634734
vt 0.450000 0.634734
vn -0.430858 0.000000 -0.902420
vn -0.430858 0.000000 -0.902420
vn -0.430858 0.000000 -0.902420
vn -0.430858 0.000000 -0.902420
vn -0.562742 0.000000 -0.826632
vn -0.790265 0.000000 -0.612765
vn -0.790265 0.000000 -0.612765
vn -0.562742 0.000000 -0.826632
vn -0.790265 0.000000 -0.612765
vn -0.878514 0.000000 -0.477717
vn -0.878514 0.000000 -0.477717
vn -0.790265 0.000000 -0.612765
vn -0.008858 -0.999929 -0.008033
vn -0.008858 -0.999929 -0.008033
vn -0.008858 -0.999929 -0.008033
vn -0.008858 -0.999929 -0.008033
s off
g rack_vino_pCube19polySurface338
usemtl lambert14SG
f 81/81/121 82/82/122 84/83/123 83/84/124
f 82/82/125 85/85/126 88/86/127 84/87/128
f 85/85/129 86/88/130 87/89/131 88/90/132
f 84/83/133 88/90/134 89/91/135 90/92/136
g default
v -0.356466 1.101012 2.203204
v -0.390866 1.101012 2.219628
v -0.356466 1.162698 2.203204
v -0.390866 1.162698 2.219628
v -0.418166 1.101012 2.245208
v -0.418166 1.162698 2.245208
v -0.435694 1.101012 2.277441
v -0.435694 1.162698 2.277441
vt 0.437500 0.473617
vt 0.450000 0.473617
vt 0.450000 0.527323
vt 0.437500 0.527323
vt 0.462500 0.473617
vt 0.462500 0.527323
vt 0.475000 0.473617
vt 0.475000 0.527323
vn -0.430858 0.000000 -0.902420
vn -0.430858 0.000000 -0.902420
vn -0.430858 0.000000 -0.902420
vn -0.430858 0.000000 -0.902420
vn -0.562743 0.000000 -0.826632
vn -0.790265 0.000000 -0.612765
vn -0.790265 0.000000 -0.612765
vn -0.562743 0.000000 -0.826632
vn -0.790265 0.000000 -0.612765
vn -0.878513 0.000000 -0.477719
vn -0.878513 0.000000 -0.477719
vn -0.790265 0.000000 -0.612765
s off
g rack_vino_pCube19polySurface280
usemtl lambert14SG
f 91/93/137 92/94/138 94/95/139 93/96/140
f 92/94/141 95/97/142 96/98/143 94/95/144
f 95/97/145 97/99/146 98/100/147 96/98/148
g default
v -0.218499 1.101012 2.381135
v -0.200971 1.101012 2.348902
v -0.218499 1.162698 2.381135
v -0.200971 1.162698 2.348902
v -0.194932 1.101012 2.313172
v -0.194932 1.162698 2.313172
v -0.200971 1.101012 2.277441
v -0.200971 1.162698 2.277441
vt 0.587500 0.473617
vt 0.600000 0.473617
vt 0.600000 0.527323
vt 0.587500 0.527323
vt 0.612500 0.473617
vt 0.612500 0.527323
vt 0.625000 0.473617
vt 0.625000 0.527323
vn 0.878513 0.000000 0.477719
vn 0.944807 0.000000 0.327627
vn 0.944807 0.000000 0.327627
vn 0.878513 0.000000 0.477719
vn 0.944807 0.000000 0.327627
vn 1.000000 0.000000 0.000001
vn 1.000000 0.000000 0.000001
vn 0.944807 0.000000 0.327627
vn 1.000000 0.000000 0.000001
vn 0.986013 0.000000 -0.166669
vn 0.986013 0.000000 -0.166669
vn 1.000000 0.000000 0.000001
s off
g polySurface331rack_vino_pCube19
usemtl lambert14SG
f 99/101/149 100/102/150 102/103/151 101/104/152
f 100/102/153 103/105/154 104/106/155 102/103/156
f 103/105/157 105/107/158 106/108/159 104/106/160
g default
v -0.356466 1.203957 2.423139
v -0.318333 1.203957 2.428798
v -0.356466 1.257602 2.423139
v -0.318333 1.257602 2.428798
v -0.280200 1.203957 2.423139
v -0.280200 1.257602 2.423139
v -0.245799 1.203957 2.406716
v -0.245799 1.257602 2.406716
vt 0.537500 0.581028
vt 0.550000 0.581028
vt 0.550000 0.634734
vt 0.537500 0.634734
vt 0.562500 0.581028
vt 0.562500 0.634734
vt 0.575000 0.581028
vt 0.575000 0.634734
vn -0.146796 0.000000 0.989167
vn -0.146796 0.000000 0.989167
vn -0.146796 0.000000 0.989167
vn -0.146796 0.000000 0.989167
vn 0.000000 0.000000 1.000000
vn 0.291250 0.000000 0.956647
vn 0.291250 0.000000 0.956647
vn 0.000000 0.000000 1.000000
vn 0.291250 0.000000 0.956647
vn 0.430842 0.000000 0.902427
vn 0.430842 0.000000 0.902427
vn 0.291250 0.000000 0.956647
s off
g rack_vino_pCube19polySurface303
usemtl lambert14SG
f 107/109/161 108/110/162 110/111/163 109/112/164
f 108/110/165 111/113/166 112/114/167 110/111/168
f 111/113/169 113/115/170 114/116/171 112/114/172
g default
v -0.318333 1.290676 2.313172
v -0.212957 1.290676 2.281090
v -0.228695 1.290676 2.252149
v -0.253207 1.290676 2.229181
v -0.284094 1.290676 2.214435
v -0.318333 1.290676 2.209354
v -0.352571 1.290676 2.214435
v -0.383458 1.290676 2.229181
v -0.407970 1.290676 2.252149
v -0.423708 1.290676 2.281090
v -0.429131 1.290676 2.313172
v -0.423708 1.290676 2.345253
v -0.407970 1.290676 2.374194
v -0.383458 1.290676 2.397162
v -0.352571 1.290676 2.411909
v -0.318333 1.290676 2.416990
v -0.284094 1.290676 2.411909
v -0.253207 1.290676 2.397162
v -0.228695 1.290676 2.374194
v -0.212957 1.290676 2.345253
v -0.207534 1.290676 2.313172
vt 0.574301 0.867892
vt 0.563204 0.889671
vt 0.500000 0.837500
vt 0.545921 0.906954
vt 0.524142 0.918051
vt 0.500000 0.921875
vt 0.475858 0.918051
vt 0.454079 0.906954
vt 0.436796 0.889671
vt 0.425699 0.867892
vt 0.421875 0.843750
vt 0.425699 0.819608
vt 0.436796 0.797829
vt 0.454079 0.780546
vt 0.475858 0.769449
vt 0.500000 0.765625
vt 0.524142 0.769449
vt 0.545921 0.780545
vt 0.563205 0.797829
vt 0.574301 0.819608
vt 0.578125 0.843750
vn 0.000000 1.000000 0.000000
vn 0.000000 1.000000 0.000000
vn 0.000000 1.000000 0.000000
vn 0.000000 1.000000 0.000000
vn 0.000000 1.000000 0.000000
vn 0.000000 1.000000 0.000000
vn 0.000000 1.000000 0.000000
vn 0.000000 1.000000 0.000000
vn 0.000000 1.000000 0.000000
vn 0.000000 1.000000 0.000000
vn 0.000000 1.000000 0.000000
vn 0.000000 1.000000 0.000000
vn 0.000000 1.000000 0.000000
vn 0.000000 1.000000 0.000000
vn 0.000000 1.000000 0.000000
vn 0.000000 1.000000 0.000000
vn 0.000000 1.000000 0.000000
vn 0.000000 1.000000 0.000000
vn 0.000000 1.000000 0.000000
vn 0.000000 1.000000 0.000000
vn 0.000000 1.000000 0.000000
vn 0.000000 1.000000 0.000000
vn 0.000000 1.000000 0.000000
vn 0.000000 1.000000 0.000000
vn 0.000000 1.000000 0.000000
vn 0.000000 1.000000 0.000000
vn 0.000000 1.000000 0.000000
vn 0.000000 1.000000 0.000000
vn 0.000000 1.000000 0.000000
vn 0.000000 1.000000 0.000000
vn 0.000000 1.000000 0.000000
vn 0.000000 1.000000 0.000000
vn 0.000000 1.000000 0.000000
vn 0.000000 1.000000 0.000000
vn 0.000000 1.000000 0.000000
vn 0.000000 1.000000 0.000000
vn 0.000000 1.000000 0.000000
vn 0.000000 1.000000 0.000000
vn 0.000000 1.000000 0.000000
vn 0.000000 1.000000 0.000000
vn 0.000000 1.000000 0.000000
vn 0.000000 1.000000 0.000000
vn 0.000000 1.000000 0.000000
vn 0.000000 1.000000 0.000000
vn 0.000000 1.000000 0.000000
vn 0.000000 1.000000 0.000000
vn 0.000000 1.000000 0.000000
vn 0.000000 1.000000 0.000000
vn 0.000000 1.000000 0.000000
vn 0.000000 1.000000 0.000000
vn 0.000000 1.000000 0.000000
vn 0.000000 1.000000 0.000000
vn 0.000000 1.000000 0.000000
vn 0.000000 1.000000 0.000000
vn 0.000000 1.000000 0.000000
vn 0.000000 1.000000 0.000000
vn 0.000000 1.000000 0.000000
vn 0.000000 1.000000 0.000000
vn 0.000000 1.000000 0.000000
vn 0.000000 1.000000 0.000000
s off
g rack_vino_pCube19polySurface302
usemtl lambert14SG
f 116/117/173 117/118/174 115/119/175
f 117/118/176 118/120/177 115/119/178
f 118/120/179 119/121/180 115/119/181
f 119/121/182 120/122/183 115/119/184
f 120/122/185 121/123/186 115/119/187
f 121/123/188 122/124/189 115/119/190
f 122/124/191 123/125/192 115/119/193
f 123/125/194 124/126/195 115/119/196
f 124/126/197 125/127/198 115/119/199
f 125/127/200 126/128/201 115/119/202
f 126/128/203 127/129/204 115/119/205
f 127/129/206 128/130/207 115/119/208
f 128/130/209 129/131/210 115/119/211
f 129/131/212 130/132/213 115/119/214
f 130/132/215 131/133/216 115/119/217
f 131/133/218 132/134/219 115/119/220
f 132/134/221 133/135/222 115/119/223
f 133/135/224 134/136/225 115/119/226
f 134/136/227 135/137/228 115/119/229
f 135/137/230 116/117/231 115/119/232
