# This file uses centimeters as units for non-parametric coordinates.

mtllib cajon.mtl
g default
v -0.159644 0.018436 -0.286059
v -0.159644 -0.002114 -0.286059
v -0.110380 -0.002114 -0.286059
v -0.110380 0.018436 -0.286059
v -0.159644 0.018436 -0.336864
v -0.159644 -0.002114 -0.336864
v -0.110380 0.018436 -0.320602
v -0.110380 -0.002114 -0.320602
v 0.108866 -0.002114 -0.320602
v 0.108866 0.018436 -0.320602
v 0.158129 0.018436 -0.336864
v 0.158129 -0.002114 -0.336864
v 0.108866 -0.002114 -0.286059
v 0.158129 -0.002114 -0.286059
v 0.158129 0.018436 -0.286059
v 0.108866 0.018436 -0.286059
v -0.313780 -0.079462 0.349438
v 0.310388 -0.079462 0.349438
v 0.310388 0.082206 0.349438
v -0.313780 0.082206 0.349438
v -0.313780 0.082206 -0.311017
v -0.313780 -0.079462 -0.311017
v -0.272029 0.082206 0.292111
v 0.268637 0.082206 0.292111
v 0.268637 -0.049968 0.292111
v -0.272029 -0.049968 0.292111
v -0.272029 0.082206 -0.253690
v -0.272029 -0.049968 -0.253690
v 0.310388 -0.079462 -0.311017
v 0.268637 -0.049968 -0.253690
v 0.268637 0.082206 -0.253690
v 0.310388 0.082206 -0.311017
vt 0.125000 0.000000
vt 0.375000 0.000000
vt 0.375000 0.038757
vt 0.125000 0.038757
vt 0.375000 0.750000
vt 0.625000 0.750000
vt 0.625000 1.000000
vt 0.375000 1.000000
vt 0.625000 0.808674
vt 0.514143 0.808675
vt 0.514143 0.948054
vt 0.625000 0.948054
vt 0.676946 0.000000
vt 0.676946 0.250000
vt 0.816326 0.250000
vt 0.816326 0.000000
vt 0.625000 0.000000
vt 0.875000 0.000000
vt 0.875000 0.250000
vt 0.625000 0.250000
vt 0.375000 0.211243
vt 0.375000 0.250000
vt 0.125000 0.250000
vt 0.125000 0.211243
vt 0.625000 0.301946
vt 0.514143 0.301946
vt 0.514143 0.441325
vt 0.625000 0.441326
vt 0.625000 0.500000
vt 0.375000 0.500000
vt 0.375000 0.711243
vt 0.544981 0.711243
vt 0.544981 0.538757
vt 0.375000 0.538757
vt 0.544981 0.211243
vt 0.544981 0.038757
vt 0.125000 0.000000
vt 0.375000 0.000000
vt 0.375000 0.250000
vt 0.125000 0.250000
vt 0.375000 0.500000
vt 0.625000 0.500000
vt 0.625000 0.750000
vt 0.375000 0.750000
vt 0.125000 0.167565
vt 0.375000 0.167565
vt 0.375000 0.000000
vt 0.125000 0.000000
vt 0.625000 0.582435
vt 0.375000 0.582435
vt 0.375000 0.750000
vt 0.625000 0.750000
vt 0.625000 1.000000
vt 0.375000 1.000000
vt 0.375000 1.000000
vt 0.625000 1.000000
vt 0.625000 0.167565
vt 0.625000 0.000000
vt 0.875000 0.167565
vt 0.875000 0.000000
vt 0.625000 0.000000
vt 0.625000 0.250000
vt 0.875000 0.000000
vt 0.875000 0.250000
vt 0.603301 0.266722
vt 0.396699 0.266722
vt 0.396699 0.483278
vt 0.603301 0.483278
vn 0.000000 0.000000 1.000000
vn 0.000000 0.000000 1.000000
vn 0.000000 0.000000 1.000000
vn 0.000000 0.000000 1.000000
vn -1.000000 0.000000 0.000000
vn -1.000000 0.000000 0.000000
vn -1.000000 0.000000 0.000000
vn -1.000000 0.000000 0.000000
vn 1.000000 0.000000 0.000000
vn 1.000000 0.000000 0.000000
vn 1.000000 0.000000 0.000000
vn 1.000000 0.000000 0.000000
vn 0.000000 0.000000 1.000000
vn 0.000000 0.000000 1.000000
vn 0.000000 0.000000 1.000000
vn 0.000000 0.000000 1.000000
vn 0.000000 0.000000 -1.000000
vn 0.000000 0.000000 -1.000000
vn 0.000000 0.000000 -1.000000
vn 0.000000 0.000000 -1.000000
vn 0.000000 0.000000 1.000000
vn 0.000000 0.000000 1.000000
vn 0.000000 0.000000 1.000000
vn 0.000000 0.000000 1.000000
vn -1.000000 0.000000 0.000000
vn -1.000000 0.000000 0.000000
vn -1.000000 0.000000 0.000000
vn -1.000000 0.000000 0.000000
vn 1.000000 0.000000 0.000000
vn 1.000000 0.000000 0.000000
vn 1.000000 0.000000 0.000000
vn 1.000000 0.000000 0.000000
vn 0.000000 1.000000 0.000000
vn 0.000000 1.000000 0.000000
vn 0.000000 1.000000 0.000000
vn 0.000000 1.000000 0.000000
vn 0.000000 1.000000 0.000000
vn 0.000000 1.000000 0.000000
vn 0.000000 1.000000 0.000000
vn 0.000000 1.000000 0.000000
vn 0.000000 -1.000000 0.000000
vn 0.000000 -1.000000 0.000000
vn 0.000000 -1.000000 0.000000
vn 0.000000 -1.000000 0.000000
vn 0.000000 -1.000000 0.000000
vn 0.000000 -1.000000 0.000000
vn 0.000000 -1.000000 0.000000
vn 0.000000 -1.000000 0.000000
vn 0.000000 0.000000 1.000000
vn 0.000000 0.000000 1.000000
vn 0.000000 0.000000 1.000000
vn 0.000000 0.000000 1.000000
vn -1.000000 0.000000 0.000000
vn -1.000000 0.000000 0.000000
vn -1.000000 0.000000 0.000000
vn -1.000000 0.000000 0.000000
vn 0.000000 0.000000 -1.000000
vn 0.000000 0.000000 -1.000000
vn 0.000000 0.000000 -1.000000
vn 0.000000 0.000000 -1.000000
vn 1.000000 0.000000 0.000000
vn 1.000000 0.000000 0.000000
vn 1.000000 0.000000 0.000000
vn 1.000000 0.000000 0.000000
vn 0.000000 -1.000000 0.000000
vn 0.000000 -1.000000 0.000000
vn 0.000000 -1.000000 0.000000
vn 0.000000 -1.000000 0.000000
vn 0.000000 1.000000 0.000000
vn 0.000000 1.000000 0.000000
vn 0.000000 1.000000 0.000000
vn 0.000000 1.000000 0.000000
vn -1.000000 0.000000 0.000000
vn -1.000000 0.000000 0.000000
vn -1.000000 0.000000 0.000000
vn -1.000000 0.000000 0.000000
vn 0.000000 0.000000 1.000000
vn 0.000000 0.000000 1.000000
vn 0.000000 0.000000 1.000000
vn 0.000000 0.000000 1.000000
vn 1.000000 0.000000 0.000000
vn 1.000000 0.000000 0.000000
vn 1.000000 0.000000 0.000000
vn 1.000000 0.000000 0.000000
vn 0.000000 0.000000 -1.000000
vn 0.000000 0.000000 -1.000000
vn 0.000000 0.000000 -1.000000
vn 0.000000 0.000000 -1.000000
vn 0.000000 1.000000 0.000000
vn 0.000000 1.000000 0.000000
vn 0.000000 1.000000 0.000000
vn 0.000000 1.000000 0.000000
vn 0.000000 1.000000 0.000000
vn 0.000000 1.000000 0.000000
vn 0.000000 1.000000 0.000000
vn 0.000000 1.000000 0.000000
vn 0.000000 1.000000 0.000000
vn 0.000000 1.000000 0.000000
vn 0.000000 1.000000 0.000000
vn 0.000000 1.000000 0.000000
s off
g polySurface1206
usemtl cocina_phong3SG
f 1/1/1 2/2/2 3/3/3 4/4/4
f 1/5/5 5/6/6 6/7/7 2/8/8
f 7/9/9 4/10/10 3/11/11 8/12/12
f 8/13/13 9/14/14 10/15/15 7/16/16
f 6/17/17 5/18/18 11/19/19 12/20/20
f 13/21/21 14/22/22 15/23/23 16/24/24
f 9/25/25 13/26/26 16/27/27 10/28/28
f 14/22/29 12/20/30 11/29/31 15/30/32
f 15/30/33 11/29/34 5/6/35 1/5/36 4/31/37 7/32/38 10/33/39 16/34/40
f 2/2/41 6/17/42 12/20/43 14/22/44 13/21/45 9/35/46 8/36/47 3/3/48
usemtl cocina_lambert2SG
f 17/37/49 18/38/50 19/39/51 20/40/52
f 20/41/53 21/42/54 22/43/55 17/44/56
f 23/45/57 24/46/58 25/47/59 26/48/60
f 27/49/61 23/50/62 26/51/63 28/52/64
f 17/44/65 22/43/66 29/53/67 18/54/68
f 26/51/69 25/55/70 30/56/71 28/52/72
f 24/46/73 31/57/74 30/58/75 25/47/76
f 31/57/77 27/59/78 28/60/79 30/58/80
f 18/38/81 29/61/82 32/62/83 19/39/84
f 29/61/85 22/63/86 21/64/87 32/62/88
f 19/39/89 32/62/90 31/65/91 24/66/92 23/67/93 20/41/94
f 32/62/95 21/42/96 20/41/97 23/67/98 27/68/99 31/65/100
