# This file uses centimeters as units for non-parametric coordinates.

mtllib refri.mtl
g default
v 0.025308 -1.937623 0.019011
v 3.025308 -1.937623 0.019011
v 3.025308 -1.937623 2.519011
v 0.025308 -1.937623 2.519011
v 2.743866 -1.670642 0.019011
v 0.243866 -1.670642 0.019011
v 0.243866 -1.670642 2.306540
v 2.743866 -1.670642 2.306540
v 0.025308 1.974486 0.002375
v 0.025308 1.774486 0.002375
v 0.025308 1.774486 0.019011
v 3.025308 1.774486 0.019011
v 2.743866 1.774486 0.019011
v 0.025308 1.774486 2.275678
v 0.025308 1.974486 2.275678
v 3.025308 1.974486 0.002375
v 3.025308 1.774486 0.002375
v 0.243866 3.829359 2.306540
v 2.743866 3.829359 2.306540
v 3.025308 4.062377 2.519011
v 0.025308 4.062377 2.519011
v 0.243866 1.774486 2.275678
v 2.743866 1.774486 2.275678
v 2.743866 1.974486 2.275678
v 0.243866 1.974486 2.275678
v 2.743866 1.974486 0.019011
v 2.743866 3.829359 0.019011
v 3.025308 1.974486 2.275678
v 3.025308 1.774486 2.275678
v 0.243866 3.829359 0.019011
v 0.243866 1.974486 0.019011
v 0.243866 1.774486 0.019011
v 3.025308 1.974486 0.026853
v 3.025308 1.966169 0.019011
v 3.025308 1.974486 0.010694
v 3.017467 1.974486 0.019011
v 3.020467 1.974486 0.019608
v 3.023011 1.974486 0.021308
v 3.024711 1.974486 0.023852
v 3.025308 4.062377 0.026853
v 3.024711 4.061780 0.023852
v 3.023011 4.060080 0.021308
v 3.020467 4.057536 0.019608
v 3.017467 4.054535 0.019011
v 0.025308 4.062377 0.026853
v 0.025905 4.061780 0.023852
v 0.027605 4.060080 0.021308
v 0.030149 4.057536 0.019608
v 0.033150 4.054535 0.019011
v 0.033150 1.974486 0.019011
v 0.025308 1.974486 0.010694
v 0.025308 1.966169 0.019011
v 0.025308 1.974486 0.026853
v 0.025905 1.974486 0.023852
v 0.027605 1.974486 0.021308
v 0.030149 1.974486 0.019608
v 3.025308 1.974486 0.014852
v 3.025308 1.970327 0.019011
v 3.025308 1.974486 0.019011
v 0.025308 1.970327 0.019011
v 0.025308 1.974486 0.014852
v 0.025308 1.974486 0.019011
v 0.025308 1.877818 0.019011
v 3.025308 1.877818 0.019011
v 0.025308 1.977818 0.019011
v 3.025308 1.977818 0.019011
v 0.025308 1.977818 -0.480989
v 3.025308 1.977818 -0.480989
v 0.025308 1.877818 -0.480989
v 3.025308 1.877818 -0.480989
vt 0.375000 0.750000
vt 0.625000 0.750000
vt 0.625000 1.000000
vt 0.375000 1.000000
vt 0.625000 0.759401
vt 0.375000 0.759401
vt 0.375000 1.000000
vt 0.625000 1.000000
vt 0.625000 0.595329
vt 0.393213 0.738876
vt 0.601546 0.738876
vt 0.601546 0.595329
vt 0.625000 0.500000
vt 0.625000 0.750000
vt 0.375000 0.750000
vt 0.375000 0.000000
vt 0.375000 0.250000
vt 0.625000 0.250000
vt 0.625000 0.000000
vt 0.625000 0.000000
vt 0.393213 0.000000
vt 0.601547 0.000000
vt 0.393213 0.250000
vt 0.375000 0.490599
vt 0.625000 0.490599
vt 0.134401 0.000000
vt 0.134401 0.156597
vt 0.371754 0.156597
vt 0.371754 0.165688
vt 0.134401 0.165688
vt 0.134401 0.250000
vt 0.625000 0.751830
vt 0.601546 0.751830
vt 0.601547 1.000000
vt 0.393213 1.000000
vt 0.393213 0.751830
vt 0.375000 0.751830
vt 0.865599 0.250000
vt 0.865599 0.165688
vt 0.628246 0.165688
vt 0.628246 0.156597
vt 0.865599 0.156597
vt 0.865599 0.000000
vt 0.393213 0.595329
vt 0.375000 0.595329
vt 0.875000 0.154671
vt 0.649333 0.154671
vt 0.873170 0.000000
vt 0.875000 0.000000
vt 0.875000 0.250000
vt 0.874085 0.250000
vt 0.873170 0.239603
vt 0.601547 0.250000
vt 0.601546 0.498170
vt 0.624346 0.498170
vt 0.625000 0.499085
vt 0.375000 0.500000
vt 0.375000 0.499085
vt 0.375653 0.498170
vt 0.393213 0.498170
vt 0.126830 0.239605
vt 0.125915 0.250000
vt 0.125000 0.250000
vt 0.125000 0.000000
vt 0.126830 0.000000
vt 0.125000 0.162658
vt 0.350667 0.154671
vt 0.350667 0.163005
vt 0.624346 0.586995
vt 0.601546 0.586995
vt 0.601546 0.509709
vt 0.625000 0.250000
vt 0.375000 0.499216
vt 0.125000 0.000000
vt 0.375000 0.000000
vt 0.375000 0.250000
vt 0.125000 0.154671
vt 0.624347 0.500327
vt 0.393213 0.509709
vt 0.393213 0.586995
vt 0.875000 0.000000
vt 0.649333 0.163005
vt 0.874216 0.163005
vt 0.874216 0.250000
vt 0.625000 0.499216
vt 0.375653 0.500327
vt 0.375653 0.586995
vt 0.125784 0.250000
vt 0.125784 0.163005
vt 0.875000 0.163005
vt 0.875000 0.163005
vt 0.875000 0.162658
vt 0.375000 0.586995
vt 0.375000 0.586995
vt 0.375000 0.586995
vt 0.875000 0.163005
vt 0.624673 0.586995
vt 0.875000 0.163005
vt 0.625000 0.586995
vt 0.874603 0.163004
vt 0.625000 0.499585
vt 0.874585 0.250000
vt 0.625000 0.500000
vt 0.875000 0.250000
vt 0.624675 0.500164
vt 0.125415 0.250000
vt 0.375000 0.499585
vt 0.375000 0.500000
vt 0.125000 0.250000
vt 0.375332 0.500168
vt 0.375000 0.586995
vt 0.125392 0.163005
vt 0.375000 0.586995
vt 0.125000 0.163005
vt 0.375336 0.586995
vt 0.874977 0.162961
vt 0.874928 0.162813
vt 0.874951 0.162949
vt 0.375021 0.586995
vt 0.375069 0.586995
vt 0.375063 0.586995
vt 0.375000 0.000000
vt 0.625000 0.000000
vt 0.625000 0.250000
vt 0.375000 0.250000
vt 0.625000 0.500000
vt 0.375000 0.500000
vt 0.625000 0.750000
vt 0.375000 0.750000
vt 0.625000 1.000000
vt 0.375000 1.000000
vt 0.875000 0.000000
vt 0.875000 0.250000
vt 0.125000 0.000000
vt 0.125000 0.250000
vn 0.000000 -1.000000 0.000000
vn 0.000000 -1.000000 0.000000
vn 0.000000 -1.000000 0.000000
vn 0.000000 -1.000000 0.000000
vn 0.000000 1.000000 0.000000
vn 0.000000 1.000000 0.000000
vn 0.000000 1.000000 0.000000
vn 0.000000 1.000000 0.000000
vn 0.000000 0.000000 -1.000000
vn 0.000000 0.000000 -1.000000
vn 0.000000 0.000000 -1.000000
vn 0.000000 0.000000 -1.000000
vn 0.000000 0.000000 -1.000000
vn 0.000000 0.000000 -1.000000
vn 0.000000 0.000000 -1.000000
vn 0.000000 0.000000 -1.000000
vn 0.000000 0.000000 -1.000000
vn 0.000000 0.000000 -1.000000
vn 0.000000 0.000000 -1.000000
vn 0.000000 0.000000 -1.000000
vn 0.000000 0.000000 -1.000000
vn 0.000000 0.000000 -1.000000
vn 1.000000 0.000000 0.000000
vn 1.000000 0.000001 0.000000
vn 1.000000 0.000001 0.000000
vn 1.000000 0.000001 0.000000
vn 1.000000 0.000002 -0.000001
vn 0.000000 0.000000 1.000000
vn 0.000000 0.000000 1.000000
vn 0.000000 0.000000 1.000000
vn 0.000000 0.000000 1.000000
vn 0.000000 0.000000 1.000000
vn 0.000000 0.000000 1.000000
vn 0.000000 0.000000 1.000000
vn 0.000000 0.000000 1.000000
vn 1.000000 0.000000 -0.000082
vn 1.000000 0.000000 0.000000
vn 1.000000 0.000000 0.000000
vn 0.000000 -1.000000 0.000000
vn 0.000000 -1.000000 0.000000
vn 0.000000 -1.000000 0.000000
vn 0.000000 -1.000000 0.000000
vn 1.000000 0.000000 0.000000
vn 1.000000 0.000000 0.000000
vn 1.000000 0.000000 0.000000
vn 1.000000 0.000000 0.000000
vn 1.000000 0.000000 0.000000
vn 1.000000 0.000000 0.000000
vn 1.000000 0.000000 0.000000
vn 1.000000 0.000000 0.000000
vn 0.000000 -1.000000 0.000000
vn 0.000000 -1.000000 0.000000
vn 0.000000 -1.000000 0.000000
vn 0.000000 -1.000000 0.000000
vn 0.000000 -1.000000 0.000000
vn 0.000000 -1.000000 0.000000
vn 0.000000 -1.000000 0.000000
vn 0.000000 -1.000000 0.000000
vn 0.000000 1.000000 0.000000
vn 0.000000 1.000000 0.000000
vn 0.000000 1.000000 0.000000
vn 0.000000 1.000000 0.000000
vn 0.000000 1.000000 0.000000
vn 0.000000 1.000000 0.000000
vn 0.000000 1.000000 0.000000
vn 0.000000 1.000000 0.000000
vn 0.000000 1.000000 0.000000
vn 0.000000 1.000000 0.000000
vn -1.000000 0.000000 0.000000
vn -1.000000 0.000000 0.000000
vn -1.000000 0.000000 0.000000
vn -1.000000 0.000000 0.000000
vn -1.000000 0.000000 0.000000
vn -1.000000 0.000000 0.000000
vn -1.000000 0.000000 0.000000
vn -1.000000 0.000000 0.000000
vn 0.000000 0.000000 -1.000000
vn 0.000000 0.000000 -1.000000
vn -1.000000 0.000002 -0.000001
vn -1.000000 0.000000 0.000000
vn -1.000000 0.000000 0.000000
vn -1.000000 0.000000 0.000000
vn -1.000000 0.000000 0.000000
vn -1.000000 0.000000 -0.000082
vn -1.000000 0.000000 0.000000
vn -1.000000 0.000000 0.000000
vn 0.924329 0.000518 -0.381598
vn 0.941590 0.000000 -0.336762
vn 1.000000 0.000000 -0.000075
vn 0.707188 0.000000 -0.707025
vn 0.761831 0.000000 -0.647776
vn 0.382825 0.000000 -0.923821
vn 0.203671 0.292424 -0.934348
vn 0.002282 0.000000 -0.999997
vn 0.002387 0.003426 -0.999991
vn 0.000000 0.000000 -1.000000
vn -0.000000 0.000000 -1.000000
vn 0.000000 1.000000 0.000000
vn 0.000000 1.000000 0.000000
vn 0.000000 1.000000 -0.000210
vn 0.000000 1.000000 -0.000210
vn -1.000000 0.000000 0.000000
vn -1.000000 0.000000 0.000000
vn -1.000000 0.000000 0.000000
vn -1.000000 0.000000 -0.000075
vn -0.001760 0.002525 -0.999995
vn -0.000000 0.000000 -1.000000
vn -0.000000 0.000000 -1.000000
vn -0.001197 0.000000 -0.999999
vn 1.000000 0.000000 0.000000
vn 1.000000 0.000000 0.000000
vn 1.000000 0.000000 0.000000
vn -0.203666 0.292421 -0.934350
vn 0.000000 0.761875 -0.647724
vn 0.000000 0.761876 -0.647723
vn 0.000000 0.941592 -0.336755
vn 0.000000 0.941592 -0.336757
vn -0.382810 0.000000 -0.923827
vn -0.761824 0.000000 -0.647784
vn -0.707178 0.000000 -0.707035
vn -0.941598 0.000000 -0.336740
vn -0.924335 0.000518 -0.381581
vn 0.000000 1.000000 0.000017
vn 0.000000 1.000000 0.000011
vn 1.000000 0.000000 0.000000
vn 0.997136 0.074392 -0.013660
vn 0.000000 1.000000 0.000062
vn 0.000000 1.000000 0.000062
vn 0.965722 0.251552 0.064054
vn 0.894529 0.433187 0.110304
vn -0.997137 0.074369 -0.013656
vn -1.000000 0.000000 0.000000
vn 0.000000 1.000000 0.000011
vn 0.000000 1.000000 0.000017
vn -0.894555 0.433132 0.110307
vn -0.965731 0.251518 0.064055
vn 0.000000 1.000000 0.000062
vn 0.000000 1.000000 0.000062
vn 0.000000 0.000000 1.000000
vn 0.000000 0.000000 1.000000
vn 0.000000 0.000000 1.000000
vn 0.000000 0.000000 1.000000
vn 0.000000 1.000000 0.000000
vn 0.000000 1.000000 0.000000
vn 0.000000 1.000000 0.000000
vn 0.000000 1.000000 0.000000
vn 0.000000 0.000000 -1.000000
vn 0.000000 0.000000 -1.000000
vn 0.000000 0.000000 -1.000000
vn 0.000000 0.000000 -1.000000
vn 0.000000 -1.000000 0.000000
vn 0.000000 -1.000000 0.000000
vn 0.000000 -1.000000 0.000000
vn 0.000000 -1.000000 0.000000
vn 1.000000 0.000000 0.000000
vn 1.000000 0.000000 0.000000
vn 1.000000 0.000000 0.000000
vn 1.000000 0.000000 0.000000
vn -1.000000 0.000000 0.000000
vn -1.000000 0.000000 0.000000
vn -1.000000 0.000000 0.000000
vn -1.000000 0.000000 0.000000
s off
g pCube11
usemtl lambert3SG
f 1/1/1 2/2/2 3/3/3 4/4/4
f 5/5/5 6/6/6 7/7/7 8/8/8
s 1
f 12/9/9 2/2/10 1/1/11 6/10/12 5/11/13 13/12/14
s off
f 9/57/15 16/13/16 17/14/17 10/15/18
f 7/16/19 18/17/20 19/18/21 8/19/22
s 2
f 12/48/23 17/49/24 16/50/25 35/51/26 34/52/27
s off
f 4/75/28 3/20/29 20/72/30 21/76/31
f 22/21/32 23/22/33 24/53/34 25/23/35
s 2
f 12/46/23 34/92/27 33/83/36 28/82/37 29/47/38
s off
f 30/24/39 27/25/40 19/18/41 18/17/42
f 6/26/43 32/27/44 22/28/45 25/29/46 31/30/47 30/31/48 18/17/49 7/16/50
f 10/15/51 17/14/52 12/32/53 13/33/54 23/34/55 22/35/56 32/36/57 11/37/58
s 3
f 25/23/59 24/53/60 26/54/61 36/55/62 35/56/63 16/13/64 9/57/65 51/58/66 50/59/67 31/60/68
s off
f 27/38/69 26/39/70 24/40/71 23/41/72 13/42/73 5/43/74 8/19/75 19/18/76
s 1
f 32/44/77 6/10/12 1/1/11 11/45/78
s 2
f 52/61/79 51/62/80 9/63/81 10/64/82 11/65/83
f 53/89/84 52/66/79 11/77/83 14/67/85 15/68/86
f 33/83/36 39/100/87 41/102/88 40/84/89
f 39/100/87 38/98/90 42/104/91 41/102/88
f 38/99/90 37/97/92 43/105/93 42/103/91
f 37/97/92 36/69/94 44/78/95 43/105/93
f 44/78/95 36/69/94 26/70/96 27/71/97
f 21/76/98 20/72/99 40/85/100 45/73/101
f 1/74/102 4/75/103 21/76/104 45/88/105 53/89/84 15/68/86 14/67/85 11/77/83
f 49/86/106 44/78/95 27/71/97 30/79/107 31/80/108 50/87/109
f 3/20/110 2/81/111 12/46/23 29/47/38 28/82/37 33/83/36 40/84/89 20/72/112
f 43/105/93 44/78/95 49/86/106 48/110/113
f 42/103/114 43/105/93 48/110/113 47/108/115
f 40/85/100 41/101/116 46/107/117 45/73/101
f 41/101/116 42/103/114 47/108/115 46/107/117
f 48/110/113 49/86/106 50/87/109 56/115/118
f 47/108/119 48/110/113 56/115/118 55/113/120
f 45/88/105 46/106/121 54/112/122 53/89/84
f 46/106/121 47/109/119 55/114/120 54/112/122
s 3
f 36/90/62 37/96/123 57/116/124 35/91/63
s 2
f 35/91/26 57/116/125 58/117/126 34/92/27
f 34/92/27 58/117/126 39/100/87 33/83/36
s 3
f 37/96/123 38/98/127 59/118/128 57/116/124
s 2
f 57/116/125 59/118/129 58/117/126
f 58/117/126 59/118/129 38/98/130 39/100/87
f 53/93/84 54/111/122 60/119/131 52/94/79
f 52/94/79 60/119/131 61/120/132 51/95/80
s 3
f 51/95/66 61/120/133 56/115/134 50/87/67
s 2
f 54/111/122 55/113/135 62/121/136 60/119/131
f 60/119/131 62/121/136 61/120/132
s 3
f 61/120/133 62/121/137 55/113/138 56/115/134
s off
usemtl lambert2SG
f 63/122/139 64/123/140 66/124/141 65/125/142
f 65/125/143 66/124/144 68/126/145 67/127/146
f 67/127/147 68/126/148 70/128/149 69/129/150
f 69/129/151 70/128/152 64/130/153 63/131/154
f 64/123/155 70/132/156 68/133/157 66/124/158
f 69/134/159 63/122/160 65/125/161 67/135/162
